# xmcd
#
# Track frame offsets:
#	150
#	12562
#	26085
#	37467
#	59820
#	72375
#	88982
#	102615
#	122677
#	138840
#	148387
#	162472
#	176057
#	189785
#
# Disc length: 2741 seconds
#
# Revision: 3
# Processed by: cddbd v1.5.1PL2 Copyright (c) Steve Scherf et al.
# Submitted via: SynApp - FreeCDDB Version: 2.1
#
DISCID=e10ab30e
DTITLE=Various Artist - Mega Truck Hits
DYEAR=1999
DGENRE=Country
TTITLE0=Tom Astor - Zwischen Mitternacht Und Morgen
TTITLE1=Truck Stop - Take It Easy Altes Haus
TTITLE2=The Falk-Ways Group - The Yellow Rose Of Texas
TTITLE3=Gunter Gabriel - Dosenbier Und Country-Musik
TTITLE4=Truck Stop - Der Wilde, Wilde Westen
TTITLE5=The Tennessee Stars - Tom Dooley
TTITLE6=Tom Astor - Tausend Tr‰ume Auf Asphalt
TTITLE7=Torfrock - Beinhart
TTITLE8=Gunter Gabriel - One Moos Nichts Los
TTITLE9=Dalia Lavi - Schalt Dein Radio Ein
TTITLE10=Truck Stop - I'm A Nut
TTITLE11=Tom Astor - Six Days On The Road
TTITLE12=Tennessee - Tausche Ufo Gegen Dreiﬂig-Tonner-Diesel
TTITLE13=Gunter Gabriel - Damen Wollen Kerle
EXTD=
EXTT0=
EXTT1=
EXTT2=
EXTT3=
EXTT4=
EXTT5=
EXTT6=
EXTT7=
EXTT8=
EXTT9=
EXTT10=
EXTT11=
EXTT12=
EXTT13=
PLAYORDER=
